<svg xmlns="http://www.w3.org/2000/svg" width="666" height="375" viewBox="0 0 666 375" version="1.1"><path d="" stroke="none" fill="#8ddccf" fill-rule="evenodd"/><path d="M 160.648 35.458 C 154.680 36.219, 148.605 37.302, 147.148 37.866 C 145.692 38.429, 141.648 39.590, 138.162 40.447 C 85.150 53.471, 54.674 103.732, 67.060 157.709 C 75.450 194.275, 106.573 214.814, 179 231.580 C 227.910 242.901, 243.677 255.345, 231.676 273.153 C 221.925 287.622, 174.118 288.621, 144.500 274.975 C 124.739 265.870, 120.501 263.824, 120.035 263.164 C 119.741 262.746, 117.250 261.114, 114.500 259.538 C 111.750 257.962, 106.947 254.721, 103.826 252.336 C 96.886 247.033, 97.107 247.035, 93.207 252.250 C 91.459 254.588, 87.313 259.650, 83.994 263.500 C 80.675 267.350, 75.398 273.632, 72.269 277.461 C 69.139 281.289, 65.886 285.126, 65.039 285.987 C 64.193 286.848, 61.250 290.414, 58.500 293.910 C 55.750 297.407, 52.713 301.107, 51.750 302.134 C 49.936 304.068, 49.445 305.980, 50.750 306.027 C 51.163 306.041, 53.443 307.834, 55.818 310.010 C 121.153 369.888, 266.497 371.023, 303.514 311.944 C 305.046 309.500, 306.667 307.257, 307.117 306.961 C 307.567 306.665, 309.500 303.035, 311.413 298.894 C 314.482 292.253, 316.023 287.105, 319.996 270.236 C 323.099 257.058, 319.721 231.045, 313.019 216.500 C 300.795 189.976, 264.944 169.862, 207.771 157.453 C 187.419 153.035, 180.310 151.249, 176.500 149.595 C 174.850 148.879, 170.949 147.290, 167.832 146.064 C 145.491 137.276, 144.841 113.912, 166.754 107.327 C 178.932 103.667, 209.252 106.429, 224.379 112.576 C 227.660 113.909, 230.739 115, 231.220 115 C 232.237 115, 251.550 124.314, 254.476 126.216 C 262.426 131.382, 267.678 134.756, 268.704 135.356 C 269.479 135.810, 272.057 132.938, 275.951 127.280 C 279.275 122.451, 284.894 114.450, 288.438 109.500 C 291.982 104.550, 297.383 96.900, 300.439 92.500 C 303.496 88.100, 307.594 82.392, 309.546 79.815 C 324.720 59.785, 218.359 28.099, 160.648 35.458 M 453.500 34.586 C 451.850 34.821, 446.900 35.495, 442.500 36.083 C 434.514 37.152, 431.581 37.896, 416.500 42.681 C 376.913 55.242, 351.993 87.922, 350.300 129.500 C 348.053 184.681, 377.602 211.429, 462.500 231.063 C 512.924 242.724, 528.114 254.115, 517.718 272.470 C 510.057 285.997, 475.503 288.894, 441.500 278.859 C 434.390 276.760, 431.747 275.695, 417.500 269.183 C 408.917 265.260, 391.206 254.335, 386.830 250.264 C 383.240 246.923, 384.424 245.903, 365.084 269 C 355.644 280.275, 346.896 290.625, 345.646 292 C 333.511 305.342, 333.568 305.574, 352 317.964 C 355.575 320.367, 360.417 323.639, 362.761 325.236 C 373.929 332.847, 406.548 346.205, 419.804 348.596 C 421.837 348.963, 424.249 349.649, 425.165 350.121 C 435.158 355.271, 494.217 357.566, 515.500 353.631 C 577.094 342.243, 612.859 298.600, 606.073 243.106 C 600.545 197.901, 567.609 173.530, 489 156.477 C 472.503 152.898, 467.257 151.575, 463.500 150.047 C 462.400 149.600, 458.350 147.986, 454.500 146.461 C 436.160 139.196, 431.052 124.235, 442.867 112.386 C 451.526 103.701, 488.580 103.480, 508.500 111.994 C 509.600 112.464, 514.850 114.490, 520.166 116.495 C 525.496 118.506, 535.563 123.644, 542.604 127.948 C 555.375 135.755, 555.375 135.755, 563.643 124.127 C 568.191 117.732, 574.006 109.575, 576.565 106 C 601.588 71.046, 600.384 75.863, 586.443 66.491 C 564.106 51.474, 535.897 40.854, 505.500 36.018 C 498.397 34.888, 458.996 33.803, 453.500 34.586" stroke="none" fill="#4cccb4" fill-rule="evenodd"/></svg>